<svg xmlns="http://www.w3.org/2000/svg" xmlns:se="http://svg-edit.googlecode.com" xmlns:xlink="http://www.w3.org/1999/xlink" xmlns:dc="http://purl.org/dc/elements/1.1/" xmlns:cc="http://creativecommons.org/ns#" xmlns:rdf="http://www.w3.org/1999/02/22-rdf-syntax-ns#" xmlns:inkscape="http://www.inkscape.org/namespaces/inkscape" width="157.68968200683594" height="155.86207580566406" style="">                                    <title>my vector image</title>                                    <!-- Created with Vector Paint - http://www.vectorpaint.yaks.com/ https://chrome.google.com/webstore/detail/hnbpdiengicdefcjecjbnjnoifekhgdo -->                                    <rect id="backgroundrect" width="100%" height="100%" x="0" y="0" fill="#00000000" stroke="none"/>                                <g class="currentLayer" style=""><title>Layer 1</title><path fill="#000099" fill-opacity="1" stroke="#b8b804" stroke-opacity="1" stroke-width="2" stroke-dasharray="none" stroke-linejoin="round" stroke-linecap="butt" stroke-dashoffset="" fill-rule="nonzero" opacity="1" marker-start="" marker-mid="" marker-end="" d="M3.0344884991645813,77.75862121582031 C3.0344884991645813,35.769670939577225 37.269295128998834,1.7586212158203127 79.53448849916458,1.7586212158203127 C121.79968186933033,1.7586212158203127 156.03448849916458,35.769670939577225 156.03448849916458,77.75862121582031 C156.03448849916458,119.7475714920634 121.79968186933033,153.7586212158203 79.53448849916458,153.7586212158203 C37.269295128998834,153.7586212158203 3.0344884991645813,119.7475714920634 3.0344884991645813,77.75862121582031 z" id="svg_1" class=""/><path fill="#4a90d6" fill-opacity="1" stroke="#222222" stroke-opacity="1" stroke-width="2" stroke-dasharray="none" stroke-linejoin="round" stroke-linecap="butt" stroke-dashoffset="" fill-rule="nonzero" opacity="1" marker-start="" marker-mid="" marker-end="" id="svg_3" d="M154.71722584856533,71.19211345630583 " style="color: rgb(0, 0, 0);" class=""/><path fill="#eb1a1a" fill-opacity="1" stroke="#b8b804" stroke-opacity="1" stroke-width="2" stroke-dasharray="none" stroke-linejoin="round" stroke-linecap="butt" stroke-dashoffset="" fill-rule="nonzero" opacity="1" marker-start="" marker-mid="" marker-end="" id="svg_8" d="M36.01772236287408,138.69950039886535 " style="color: rgb(0, 0, 0);" class=""/><path fill="#eb1a1a" fill-opacity="1" stroke="#b8b804" stroke-opacity="1" stroke-width="2" stroke-dasharray="none" stroke-linejoin="round" stroke-linecap="butt" stroke-dashoffset="" fill-rule="nonzero" opacity="1" marker-start="" marker-mid="" marker-end="" id="svg_13" d="M13.189652583908526,38.34481697757258 " style="color: rgb(0, 0, 0);"/><path fill="#eb1a1a" fill-opacity="1" stroke="#b8b804" stroke-opacity="1" stroke-width="2" stroke-dasharray="none" stroke-linejoin="round" stroke-linecap="butt" stroke-dashoffset="" fill-rule="nonzero" opacity="1" marker-start="" marker-mid="" marker-end="" id="svg_2" d="M13.189652583908526,38.89654951600207 " style="color: rgb(0, 0, 0);"/><path fill="#eb1a1a" fill-opacity="1" stroke="#b8b804" stroke-opacity="1" stroke-width="2" stroke-dasharray="none" stroke-linejoin="round" stroke-linecap="butt" stroke-dashoffset="" fill-rule="nonzero" opacity="1" marker-start="" marker-mid="" marker-end="" id="svg_4" d="M11.810342284439997,40.41379084541746 " style="color: rgb(0, 0, 0);"/><path fill="#eb1a1a" fill-opacity="1" stroke="#b8b804" stroke-opacity="1" stroke-width="2" stroke-dasharray="none" stroke-linejoin="round" stroke-linecap="butt" stroke-dashoffset="" fill-rule="nonzero" opacity="1" marker-start="" marker-mid="" marker-end="" id="svg_5" d="M9.741376835237219,44.96551483366357 " style="color: rgb(0, 0, 0);"/><path fill="#000099" stroke="#b8b804" stroke-width="2" stroke-linejoin="round" stroke-dashoffset="" fill-rule="nonzero" marker-start="" marker-mid="" marker-end="" id="svg_6" d="M48.10111514277442,77.39948217113911 L56.14683824178913,75.06727882241549 L48.710529485527005,71.21039201201202 L57.05669509467443,70.49275151071278 L50.51594603691274,65.2592329031823 L58.84165915685159,66.18331877807532 L53.44759298021495,59.77451233496076 L61.43294227285567,62.30528112155527 L57.392922008947345,54.96712770622956 L64.73105200376493,59.00717139064493 L62.20033005818358,51.02181996886643 L68.60908540201211,56.41586272499775 L67.68499952711971,48.09017302556577 L72.91852026378672,54.630898662821 L73.6361607650861,46.28475860331548 L77.4930475754881,53.72106523044081 L79.8252509242137,45.67534213142769 L82.15745427293892,53.72106523044081 L86.01434108334199,46.28475860331548 L86.73198158464089,54.630898662821 L91.96550019217104,48.09017302556577 L91.04141644641442,56.41586272499775 L97.4501675319693,51.02181996886643 L94.91944558638772,59.00717139064493 L102.2575798394793,54.96712770622956 L98.21756170470829,62.30528112155527 L106.20290673907515,59.77451233496076 L100.8088405624382,66.18331877807532 L109.1345047122288,65.2592329031823 L102.59380888288887,70.49275151071278 L110.93989784310816,71.21039201201202 L103.50371470592465,75.06727882241549 L111.54938670565298,77.39948217113911 L103.50371470592465,79.73168551986512 L110.93989784310816,83.58857233026684 L102.59380888288887,84.30621283156732 L109.1345047122288,89.53973143909664 L100.8088405624382,88.61564769334095 L106.20290673907515,95.02440303716917 L98.21756170470829,92.49367896245204 L102.2575798394793,99.83181321554221 L94.91944558638772,95.79179082249755 L97.4501675319693,103.77714011513801 L91.04141644641442,98.38307393850128 L91.96550019217104,106.70873808829097 L86.73198158464089,100.16804225895166 L86.01434108334199,108.51413121917015 L82.15745427293892,101.07794808198776 L79.8252509242137,109.12362008171542 L77.4930475754881,101.07794808198776 L73.6361607650861,108.51413121917015 L72.91852026378672,100.16804225895166 L67.68499952711971,106.70873808829097 L68.60908540201211,98.38307393850128 L62.20033005818358,103.77714011513801 L64.73105200376493,95.79179082249755 L57.392922008947345,99.83181321554221 L61.43294227285567,92.49367896245204 L53.44759298021495,95.02440303716917 L58.84165915685159,88.61564769334095 L50.51594603691274,89.53973143909664 L57.05669509467443,84.30621283156732 L48.710529485527005,83.58857233026684 L56.14683824178913,79.73168551986512 L48.10111514277442,77.39948217113911 z" style="color: rgb(0, 0, 0);" class="" fill-opacity="1"/><path fill="#000099" stroke="#b8b804" stroke-width="2" stroke-linejoin="round" stroke-dashoffset="" fill-rule="nonzero" marker-start="" marker-mid="" marker-end="" id="svg_9" d="M58.41835972374167,27.918183141483986 L64.21374738705934,27.918183141483986 L66.00456676970249,22.41258909646348 L67.7953871706283,27.918183141483986 L73.59077381566335,27.918183141483986 L68.90221528777562,31.32078843876849 L70.69312733415573,36.82638248378909 L66.00456676970249,33.423684522767445 L61.31600722353173,36.82638248378909 L63.1069197790536,31.32078843876849 L58.41835972374167,27.918183141483986 z" style="color: rgb(0, 0, 0);" class="" fill-opacity="1"/><path fill="#000099" stroke="#b8b804" stroke-width="2" stroke-linejoin="round" stroke-dashoffset="" fill-rule="nonzero" marker-start="" marker-mid="" marker-end="" id="svg_11" d="M116.74594502903594,47.64045253328045 L125.96587713154116,47.64045253328045 L128.81490709727336,38.88155559177929 L131.66393868299897,47.64045253328045 L140.88386916550925,47.64045253328045 L133.42480105875237,53.053686579926804 L136.27397844401887,61.81258352142778 L128.81490709727336,56.399202055244615 L121.35583737052085,61.81258352142778 L124.20501556578624,53.053686579926804 L116.74594502903594,47.64045253328045 z" style="color: rgb(0, 0, 0);" class="" fill-opacity="1"/><path fill="#000099" stroke="#b8b804" stroke-width="2" stroke-linejoin="round" stroke-dashoffset="" fill-rule="nonzero" marker-start="" marker-mid="" marker-end="" id="svg_14" d="M103.7080088439836,113.62151417415726 L105.81542243360391,113.62151417415726 L106.46662944904241,111.61948007679231 L107.1178368347657,113.62151417415726 L109.22525005410172,113.62151417415726 L107.52031976618608,114.85882512903973 L108.17156047752738,116.86085922640459 L106.46662944904241,115.62351457561964 L104.76169879084235,116.86085922640459 L105.41293968732607,114.85882512903973 L103.7080088439836,113.62151417415726 z" style="color: rgb(0, 0, 0);" class="" fill-opacity="1"/><path fill="#000099" stroke="#b8b804" stroke-width="2" stroke-linejoin="round" stroke-dashoffset="" fill-rule="nonzero" marker-start="" marker-mid="" marker-end="" id="svg_16" d="M39.20456510015783,122.5581474018935 L47.10736743928491,122.5581474018935 L49.54939417300692,115.05051822763255 L51.99142229529725,122.5581474018935 L59.8942232458563,122.5581474018935 L53.50073355130968,127.19806429178628 L55.94288664468906,134.70569346604566 L49.54939417300692,130.06565021649675 L43.155903089892945,134.70569346604566 L45.59805687755625,127.19806429178628 L39.20456510015783,122.5581474018935 z" style="color: rgb(0, 0, 0);" class="" fill-opacity="1"/><path fill="#000099" stroke="#b8b804" stroke-width="2" stroke-linejoin="round" stroke-dashoffset="" fill-rule="nonzero" marker-start="" marker-mid="" marker-end="" id="svg_18" d="M10.383877279282025,74.75797966534046 L12.754717441695215,74.75797966534046 L13.487325295156399,72.50569142541862 L14.219933565187773,74.75797966534046 L16.59077331103077,74.75797966534046 L14.672726838988947,76.1499544156582 L15.405372600338637,78.40224265557985 L13.487325295156399,77.01022999737349 L11.569278406544372,78.40224265557985 L12.301924376179164,76.1499544156582 L10.383877279282025,74.75797966534046 z" style="color: rgb(0, 0, 0);" class="" fill-opacity="1"/><path fill="#000099" stroke="#b8b804" stroke-width="2" stroke-linejoin="round" stroke-dashoffset="" fill-rule="nonzero" marker-start="" marker-mid="" marker-end="" id="svg_20" d="M28.225255705991852,52.62162786560906 L34.02064357301129,52.62162786560906 L35.811463018599895,47.1160336270726 L37.60228348247122,52.62162786560906 L43.397670331207784,52.62162786560906 L38.70911163852218,56.02423328249143 L40.5000237478509,61.52982752102763 L35.811463018599895,58.127129440404815 L31.122903307631397,61.52982752102763 L32.913815926101755,56.02423328249143 L28.225255705991852,52.62162786560906 z" style="color: rgb(0, 0, 0);" class="" fill-opacity="1"/></g></svg>