<svg xmlns="http://www.w3.org/2000/svg" xmlns:se="http://svg-edit.googlecode.com" xmlns:xlink="http://www.w3.org/1999/xlink" xmlns:dc="http://purl.org/dc/elements/1.1/" xmlns:cc="http://creativecommons.org/ns#" xmlns:rdf="http://www.w3.org/1999/02/22-rdf-syntax-ns#" xmlns:inkscape="http://www.inkscape.org/namespaces/inkscape" width="157.68968200683594" height="155.86207580566406" style="">                                    <title>my vector image</title>                                    <!-- Created with Vector Paint - http://www.vectorpaint.yaks.com/ https://chrome.google.com/webstore/detail/hnbpdiengicdefcjecjbnjnoifekhgdo -->                                    <rect id="backgroundrect" width="100%" height="100%" x="0" y="0" fill="#00000000" stroke="none"/>                                <g class="currentLayer" style=""><title>Layer 1</title><path fill="#000099" fill-opacity="1" stroke="#b8b804" stroke-opacity="1" stroke-width="2" stroke-dasharray="none" stroke-linejoin="round" stroke-linecap="butt" stroke-dashoffset="" fill-rule="nonzero" opacity="1" marker-start="" marker-mid="" marker-end="" d="M3.0344884991645813,77.75862121582031 C3.0344884991645813,35.769670939577225 37.269295128998834,1.7586212158203127 79.53448849916458,1.7586212158203127 C121.79968186933033,1.7586212158203127 156.03448849916458,35.769670939577225 156.03448849916458,77.75862121582031 C156.03448849916458,119.7475714920634 121.79968186933033,153.7586212158203 79.53448849916458,153.7586212158203 C37.269295128998834,153.7586212158203 3.0344884991645813,119.7475714920634 3.0344884991645813,77.75862121582031 z" id="svg_1" class=""/><path fill="#4a90d6" fill-opacity="1" stroke="#222222" stroke-opacity="1" stroke-width="2" stroke-dasharray="none" stroke-linejoin="round" stroke-linecap="butt" stroke-dashoffset="" fill-rule="nonzero" opacity="1" marker-start="" marker-mid="" marker-end="" id="svg_3" d="M154.71722584856533,71.19211345630583 " style="color: rgb(0, 0, 0);" class=""/><path fill="#eb1a1a" fill-opacity="1" stroke="#b8b804" stroke-opacity="1" stroke-width="2" stroke-dasharray="none" stroke-linejoin="round" stroke-linecap="butt" stroke-dashoffset="" fill-rule="nonzero" opacity="1" marker-start="" marker-mid="" marker-end="" id="svg_8" d="M36.01772236287408,138.69950039886535 " style="color: rgb(0, 0, 0);" class=""/><path fill="#eb1a1a" fill-opacity="1" stroke="#b8b804" stroke-opacity="1" stroke-width="2" stroke-dasharray="none" stroke-linejoin="round" stroke-linecap="butt" stroke-dashoffset="" fill-rule="nonzero" opacity="1" marker-start="" marker-mid="" marker-end="" id="svg_13" d="M13.189652583908526,38.34481697757258 " style="color: rgb(0, 0, 0);"/><path fill="#eb1a1a" fill-opacity="1" stroke="#b8b804" stroke-opacity="1" stroke-width="2" stroke-dasharray="none" stroke-linejoin="round" stroke-linecap="butt" stroke-dashoffset="" fill-rule="nonzero" opacity="1" marker-start="" marker-mid="" marker-end="" id="svg_2" d="M13.189652583908526,38.89654951600207 " style="color: rgb(0, 0, 0);"/><path fill="#eb1a1a" fill-opacity="1" stroke="#b8b804" stroke-opacity="1" stroke-width="2" stroke-dasharray="none" stroke-linejoin="round" stroke-linecap="butt" stroke-dashoffset="" fill-rule="nonzero" opacity="1" marker-start="" marker-mid="" marker-end="" id="svg_4" d="M11.810342284439997,40.41379084541746 " style="color: rgb(0, 0, 0);"/><path fill="#eb1a1a" fill-opacity="1" stroke="#b8b804" stroke-opacity="1" stroke-width="2" stroke-dasharray="none" stroke-linejoin="round" stroke-linecap="butt" stroke-dashoffset="" fill-rule="nonzero" opacity="1" marker-start="" marker-mid="" marker-end="" id="svg_5" d="M9.741376835237219,44.96551483366357 " style="color: rgb(0, 0, 0);"/><path fill="#000099" fill-opacity="1" stroke="#b8b804" stroke-opacity="1" stroke-width="2" stroke-dasharray="none" stroke-linejoin="round" stroke-linecap="butt" stroke-dashoffset="" fill-rule="nonzero" opacity="1" marker-start="" marker-mid="" marker-end="" id="svg_10" d="M 3.534480487628855 65.24137623585088 C 104.91378749856538 27.31034300046648 142.15516558421552 35.586204797277624 142.15516558421552 35.586204797277624" style="color: rgb(0, 0, 0);"/><path fill="#000099" fill-opacity="1" stroke="#b8b804" stroke-opacity="1" stroke-width="2" stroke-dasharray="none" stroke-linejoin="round" stroke-linecap="butt" stroke-dashoffset="" fill-rule="nonzero" opacity="1" marker-start="" marker-mid="" marker-end="" id="svg_6" d="M 15.948273182845583 121.1034433643261 C 135.94826923660713 64.55172108611663 155.94826857890075 74.2068931823963 155.94826857890075 74.2068931823963" style="color: rgb(0, 0, 0);"/><path fill="#000099" stroke="#b8b804" stroke-width="2" stroke-linejoin="round" stroke-dashoffset="" fill-rule="nonzero" marker-start="" marker-mid="" marker-end="" id="svg_9" d="M68.71145994681633,19.183192183382083 L73.97999410555371,19.183192183382083 L75.60801170121937,14.178106764518654 L77.23603022259675,19.183192183382083 L82.50456345562273,19.183192183382083 L78.24223758642006,22.276469679021126 L79.8703394218455,27.281555097884567 L75.60801170121937,24.188193362485865 L71.34568490630495,27.281555097884567 L72.97378720458667,22.276469679021126 L68.71145994681633,19.183192183382083 z" style="color: rgb(0, 0, 0);"/><path fill="#000099" stroke="#b8b804" stroke-width="2" stroke-linejoin="round" stroke-dashoffset="" fill-rule="nonzero" marker-start="" marker-mid="" marker-end="" id="svg_12" d="M24.7942209953255,77.4621598767755 L35.06786188071145,77.4621598767755 L38.242495968490886,67.70224399793366 L41.41713186140791,77.4621598767755 L51.690770941656226,77.4621598767755 L43.37923608256155,83.49405056810541 L46.55403443786089,93.25396644694754 L38.242495968490886,87.22191148809831 L29.93095930425844,93.25396644694754 L33.10575856212661,83.49405056810541 L24.7942209953255,77.4621598767755 z" style="color: rgb(0, 0, 0);"/><path fill="#000099" stroke="#b8b804" stroke-width="2" stroke-linejoin="round" stroke-dashoffset="" fill-rule="nonzero" marker-start="" marker-mid="" marker-end="" id="svg_15" d="M108.51146306008735,124.38748208135469 L111.83895621628851,124.38748208135469 L112.86717720613773,121.22637749786279 L113.89539878064656,124.38748208135469 L117.22289135218804,124.38748208135469 L114.53089776688547,126.34112979186646 L115.55917196075957,129.50223437535826 L112.86717720613773,127.54853346082163 L110.17518303617513,129.50223437535826 L111.20345752237974,126.34112979186646 L108.51146306008735,124.38748208135469 z" style="color: rgb(0, 0, 0);"/><path fill="#000099" stroke="#b8b804" stroke-width="2" stroke-linejoin="round" stroke-dashoffset="" fill-rule="nonzero" marker-start="" marker-mid="" marker-end="" id="svg_17" d="M127.0390459857999,55.766797078449684 L130.3665396921405,55.766797078449684 L131.39476085198703,52.605691972327534 L132.4229825964932,55.766797078449684 L135.75047571817404,55.766797078449684 L133.05848168780003,57.72044511196074 L134.0867560516803,60.88155021808301 L131.39476085198703,58.927848980537945 L128.70276623695287,60.88155021808301 L129.73104089316345,57.72044511196074 L127.0390459857999,55.766797078449684 z" style="color: rgb(0, 0, 0);"/><path fill="#000099" stroke="#b8b804" stroke-width="2" stroke-linejoin="round" stroke-dashoffset="" fill-rule="nonzero" marker-start="" marker-mid="" marker-end="" id="svg_20" d="M64.59422191671547,122.91359904245273 L65.64792847259989,122.91359904245273 L65.9735319064892,121.91258222074875 L66.29913552552081,122.91359904245273 L67.35284189626302,122.91359904245273 L66.50037694559992,123.53225437961503 L66.82599722743683,124.53327120131897 L65.9735319064892,123.91459901620914 L65.12106677068397,124.53327120131897 L65.44668714509193,123.53225437961503 L64.59422191671547,122.91359904245273 z" style="color: rgb(0, 0, 0);"/><path fill="#000099" stroke="#b8b804" stroke-width="2" stroke-linejoin="round" stroke-dashoffset="" fill-rule="nonzero" marker-start="" marker-mid="" marker-end="" id="svg_22" d="M116.7459441433127,43.5638595059665 L118.06307649377854,43.5638595059665 L118.47008052521728,42.31258928100326 L118.87708478808375,43.5638595059665 L120.1942169071218,43.5638595059665 L119.12863640191739,44.33717818165869 L119.535661493277,45.588448406621836 L118.47008052521728,44.81510867100875 L117.40449978858514,45.588448406621836 L117.81152499565859,44.33717818165869 L116.7459441433127,43.5638595059665 z" style="color: rgb(0, 0, 0);"/><path fill="#000099" stroke="#b8b804" stroke-width="2" stroke-linejoin="round" stroke-dashoffset="" fill-rule="nonzero" marker-start="" marker-mid="" marker-end="" id="svg_24" d="M68.7114603950588,57.08392449012592 L73.42541037741877,57.08392449012592 L74.88205719513788,52.605691719662865 L76.33870484112555,57.08392449012592 L81.05265399521736,57.08392449012592 L77.23899532839077,59.851592869350355 L78.69571751850083,64.32982563981331 L74.88205719513788,61.56208188819832 L71.06839770004345,64.32982563981331 L72.5251203042876,59.851592869350355 L68.7114603950588,57.08392449012592 z" style="color: rgb(0, 0, 0);"/></g></svg>